<svg width="276" height="176" viewBox="0 0 276 176" fill="none" xmlns="http://www.w3.org/2000/svg">
<path d="M40 17C40 11.4772 44.4771 7 50 7H156C161.523 7 166 11.4772 166 17V72C166 77.5229 161.523 82 156 82H50C44.4771 82 40 77.5229 40 72V17Z" fill="#BC3609"/>
<path d="M0.967873 70V4.144H27.3679C34.0239 4.144 39.7199 5.328 44.4559 7.696C49.1919 10.064 52.8399 13.68 55.3999 18.544C57.9599 23.344 59.2399 29.52 59.2399 37.072C59.2399 44.56 57.9599 50.736 55.3999 55.6C52.8399 60.464 49.1919 64.08 44.4559 66.448C39.7199 68.816 34.0239 70 27.3679 70H0.967873ZM13.4479 59.344H27.3679C30.4399 59.344 33.1599 58.896 35.5279 58C37.8959 57.104 39.8799 55.792 41.4799 54.064C43.0799 52.272 44.2959 50.064 45.1279 47.44C45.9599 44.752 46.3759 41.648 46.3759 38.128V36.112C46.3759 32.528 45.9599 29.424 45.1279 26.8C44.2959 24.112 43.0799 21.904 41.4799 20.176C39.8799 18.384 37.8959 17.04 35.5279 16.144C33.1599 15.248 30.4399 14.8 27.3679 14.8H13.4479V59.344Z" fill="white"/>
<path d="M91.4516 71.152C86.0756 71.152 81.5956 70.224 78.0116 68.368C74.4276 66.448 71.7396 63.536 69.9476 59.632C68.1556 55.728 67.2596 50.768 67.2596 44.752C67.2596 38.672 68.1556 33.712 69.9476 29.872C71.7396 25.968 74.4276 23.088 78.0116 21.232C81.5956 19.312 86.0756 18.352 91.4516 18.352C96.3156 18.352 100.38 19.28 103.644 21.136C106.972 22.928 109.468 25.712 111.132 29.488C112.796 33.264 113.628 38.16 113.628 44.176V47.632H79.2596C79.3876 50.768 79.8676 53.424 80.6996 55.6C81.5316 57.712 82.8116 59.312 84.5396 60.4C86.3316 61.424 88.6676 61.936 91.5476 61.936C93.0196 61.936 94.3956 61.744 95.6756 61.36C96.9556 60.976 98.0756 60.4 99.0356 59.632C99.9956 58.8 100.732 57.776 101.244 56.56C101.82 55.344 102.108 53.936 102.108 52.336H113.628C113.628 55.536 113.052 58.32 111.9 60.688C110.812 63.056 109.244 65.008 107.196 66.544C105.212 68.08 102.876 69.232 100.188 70C97.4996 70.768 94.5876 71.152 91.4516 71.152ZM79.4516 39.376H101.436C101.436 37.264 101.18 35.472 100.668 34C100.22 32.528 99.5476 31.312 98.6516 30.352C97.8196 29.392 96.7956 28.72 95.5796 28.336C94.3636 27.888 92.9876 27.664 91.4516 27.664C88.9556 27.664 86.8436 28.08 85.1156 28.912C83.4516 29.744 82.1716 31.024 81.2756 32.752C80.3796 34.48 79.7716 36.688 79.4516 39.376Z" fill="white"/>
<path d="M123.568 70V0.591995H135.28V70H123.568Z" fill="white"/>
<path d="M169.452 71.152C164.076 71.152 159.596 70.224 156.012 68.368C152.428 66.448 149.74 63.536 147.948 59.632C146.156 55.728 145.26 50.768 145.26 44.752C145.26 38.672 146.156 33.712 147.948 29.872C149.74 25.968 152.428 23.088 156.012 21.232C159.596 19.312 164.076 18.352 169.452 18.352C174.316 18.352 178.38 19.28 181.644 21.136C184.972 22.928 187.468 25.712 189.132 29.488C190.796 33.264 191.628 38.16 191.628 44.176V47.632H157.26C157.388 50.768 157.868 53.424 158.7 55.6C159.532 57.712 160.812 59.312 162.54 60.4C164.332 61.424 166.668 61.936 169.548 61.936C171.02 61.936 172.396 61.744 173.676 61.36C174.956 60.976 176.076 60.4 177.036 59.632C177.996 58.8 178.732 57.776 179.244 56.56C179.82 55.344 180.108 53.936 180.108 52.336H191.628C191.628 55.536 191.052 58.32 189.9 60.688C188.812 63.056 187.244 65.008 185.196 66.544C183.212 68.08 180.876 69.232 178.188 70C175.5 70.768 172.588 71.152 169.452 71.152ZM157.452 39.376H179.436C179.436 37.264 179.18 35.472 178.668 34C178.22 32.528 177.548 31.312 176.652 30.352C175.82 29.392 174.796 28.72 173.58 28.336C172.364 27.888 170.988 27.664 169.452 27.664C166.956 27.664 164.844 28.08 163.116 28.912C161.452 29.744 160.172 31.024 159.276 32.752C158.38 34.48 157.772 36.688 157.452 39.376Z" fill="white"/>
<path d="M214.912 71.152C211.776 71.152 209.312 70.544 207.52 69.328C205.728 68.048 204.448 66.448 203.68 64.528C202.976 62.544 202.624 60.528 202.624 58.48V29.104H196.576V19.504H202.912L205.024 5.392H214.336V19.504H223.072V29.104H214.336V57.328C214.336 58.672 214.688 59.728 215.392 60.496C216.096 61.2 217.152 61.552 218.56 61.552H223.072V69.616C222.432 69.872 221.632 70.096 220.672 70.288C219.776 70.544 218.816 70.736 217.792 70.864C216.768 71.056 215.808 71.152 214.912 71.152Z" fill="white"/>
<path d="M253.452 71.152C248.076 71.152 243.596 70.224 240.012 68.368C236.428 66.448 233.74 63.536 231.948 59.632C230.156 55.728 229.26 50.768 229.26 44.752C229.26 38.672 230.156 33.712 231.948 29.872C233.74 25.968 236.428 23.088 240.012 21.232C243.596 19.312 248.076 18.352 253.452 18.352C258.316 18.352 262.38 19.28 265.644 21.136C268.972 22.928 271.468 25.712 273.132 29.488C274.796 33.264 275.628 38.16 275.628 44.176V47.632H241.26C241.388 50.768 241.868 53.424 242.7 55.6C243.532 57.712 244.812 59.312 246.54 60.4C248.332 61.424 250.668 61.936 253.548 61.936C255.02 61.936 256.396 61.744 257.676 61.36C258.956 60.976 260.076 60.4 261.036 59.632C261.996 58.8 262.732 57.776 263.244 56.56C263.82 55.344 264.108 53.936 264.108 52.336H275.628C275.628 55.536 275.052 58.32 273.9 60.688C272.812 63.056 271.244 65.008 269.196 66.544C267.212 68.08 264.876 69.232 262.188 70C259.5 70.768 256.588 71.152 253.452 71.152ZM241.452 39.376H263.436C263.436 37.264 263.18 35.472 262.668 34C262.22 32.528 261.548 31.312 260.652 30.352C259.82 29.392 258.796 28.72 257.58 28.336C256.364 27.888 254.988 27.664 253.452 27.664C250.956 27.664 248.844 28.08 247.116 28.912C245.452 29.744 244.172 31.024 243.276 32.752C242.38 34.48 241.772 36.688 241.452 39.376Z" fill="white"/>
<path d="M41.9835 174V108.144H76.6395C81.5035 108.144 85.5355 108.976 88.7355 110.64C91.9355 112.304 94.3355 114.672 95.9355 117.744C97.5355 120.816 98.3355 124.432 98.3355 128.592C98.3355 132.88 97.3755 136.688 95.4555 140.016C93.5355 143.28 90.7195 145.744 87.0075 147.408L100.64 174H87.0075L74.9115 149.52H54.4635V174H41.9835ZM54.4635 139.056H75.6795C78.8795 139.056 81.3435 138.128 83.0715 136.272C84.7995 134.416 85.6635 131.856 85.6635 128.592C85.6635 126.48 85.2795 124.72 84.5115 123.312C83.7435 121.84 82.6235 120.72 81.1515 119.952C79.6795 119.184 77.8555 118.8 75.6795 118.8H54.4635V139.056Z" fill="white"/>
<path d="M109.74 115.728V104.592H121.452V115.728H109.74ZM109.74 174V123.504H121.452V174H109.74Z" fill="white"/>
<path d="M151.495 175.152C147.399 175.152 143.848 174.224 140.84 172.368C137.832 170.512 135.496 167.632 133.832 163.728C132.232 159.824 131.431 154.8 131.431 148.656C131.431 142.576 132.263 137.616 133.927 133.776C135.591 129.872 137.896 126.992 140.84 125.136C143.784 123.28 147.111 122.352 150.823 122.352C153.127 122.352 155.239 122.608 157.159 123.12C159.079 123.632 160.776 124.432 162.248 125.52C163.72 126.544 164.967 127.824 165.991 129.36H166.567V104.592H178.28V174H168.584L167.623 167.28H166.951C165.351 169.904 163.175 171.888 160.424 173.232C157.736 174.512 154.759 175.152 151.495 175.152ZM155.144 165.072C157.832 165.072 160.008 164.464 161.672 163.248C163.336 162.032 164.551 160.272 165.319 157.968C166.151 155.664 166.567 152.848 166.567 149.52V148.272C166.567 145.776 166.344 143.536 165.896 141.552C165.448 139.568 164.744 137.904 163.784 136.56C162.888 135.216 161.703 134.192 160.231 133.488C158.823 132.784 157.128 132.432 155.144 132.432C152.264 132.432 149.959 133.008 148.231 134.16C146.567 135.248 145.352 136.976 144.584 139.344C143.88 141.648 143.528 144.592 143.528 148.176V149.52C143.528 153.04 143.88 155.952 144.584 158.256C145.352 160.56 146.567 162.288 148.231 163.44C149.959 164.528 152.264 165.072 155.144 165.072Z" fill="white"/>
<path d="M212.436 175.152C207.06 175.152 202.58 174.224 198.996 172.368C195.412 170.448 192.724 167.536 190.932 163.632C189.14 159.728 188.244 154.768 188.244 148.752C188.244 142.672 189.14 137.712 190.932 133.872C192.724 129.968 195.412 127.088 198.996 125.232C202.58 123.312 207.06 122.352 212.436 122.352C217.3 122.352 221.364 123.28 224.628 125.136C227.956 126.928 230.452 129.712 232.116 133.488C233.78 137.264 234.612 142.16 234.612 148.176V151.632H200.244C200.372 154.768 200.852 157.424 201.684 159.6C202.516 161.712 203.796 163.312 205.524 164.4C207.316 165.424 209.652 165.936 212.532 165.936C214.004 165.936 215.38 165.744 216.66 165.36C217.94 164.976 219.06 164.4 220.02 163.632C220.98 162.8 221.716 161.776 222.228 160.56C222.804 159.344 223.092 157.936 223.092 156.336H234.612C234.612 159.536 234.036 162.32 232.884 164.688C231.796 167.056 230.228 169.008 228.18 170.544C226.196 172.08 223.86 173.232 221.172 174C218.484 174.768 215.572 175.152 212.436 175.152ZM200.436 143.376H222.42C222.42 141.264 222.164 139.472 221.652 138C221.204 136.528 220.532 135.312 219.636 134.352C218.804 133.392 217.78 132.72 216.564 132.336C215.348 131.888 213.972 131.664 212.436 131.664C209.94 131.664 207.828 132.08 206.1 132.912C204.436 133.744 203.156 135.024 202.26 136.752C201.364 138.48 200.756 140.688 200.436 143.376Z" fill="white"/>
</svg>
