<svg width="265" height="190" viewBox="0 0 265 190" fill="none" xmlns="http://www.w3.org/2000/svg">
<path d="M70 10C70 4.47715 74.4771 0 80 0H186C191.523 0 196 4.47715 196 10V65C196 70.5228 191.523 75 186 75H80C74.4771 75 70 70.5228 70 65V10Z" fill="#FF9800"/>
<path d="M30.1532 85.152C26.5052 85.152 23.0172 84.768 19.6892 84C16.3612 83.168 13.4172 81.92 10.8572 80.256C8.29725 78.528 6.28124 76.416 4.80924 73.92C3.33724 71.36 2.60124 68.352 2.60124 64.896C2.60124 64.512 2.60124 64.128 2.60124 63.744C2.66524 63.36 2.69724 63.072 2.69724 62.88H15.2732C15.2732 63.008 15.2412 63.264 15.1772 63.648C15.1772 63.968 15.1772 64.256 15.1772 64.512C15.1772 66.624 15.7852 68.448 17.0012 69.984C18.2172 71.456 19.9772 72.608 22.2812 73.44C24.5852 74.208 27.3052 74.592 30.4412 74.592C32.5532 74.592 34.4092 74.464 36.0092 74.208C37.6732 73.952 39.0812 73.6 40.2332 73.152C41.4492 72.64 42.4412 72.064 43.2092 71.424C43.9772 70.72 44.5212 69.952 44.8412 69.12C45.2252 68.288 45.4172 67.392 45.4172 66.432C45.4172 64.576 44.8412 63.04 43.6892 61.824C42.5372 60.608 40.9692 59.584 38.9852 58.752C37.0652 57.92 34.8572 57.184 32.3612 56.544C29.9292 55.84 27.4012 55.136 24.7772 54.432C22.2172 53.728 19.6892 52.896 17.1932 51.936C14.7612 50.912 12.5532 49.696 10.5692 48.288C8.64924 46.88 7.11324 45.12 5.96124 43.008C4.80924 40.832 4.23324 38.24 4.23324 35.232C4.23324 32.16 4.87324 29.472 6.15324 27.168C7.49724 24.864 9.35324 22.976 11.7212 21.504C14.1532 19.968 16.9692 18.848 20.1692 18.144C23.3692 17.376 26.8572 16.992 30.6332 16.992C34.1532 16.992 37.4492 17.376 40.5212 18.144C43.6572 18.848 46.4092 20 48.7772 21.6C51.1452 23.136 53.0012 25.12 54.3452 27.552C55.6892 29.92 56.3612 32.768 56.3612 36.096V37.248H43.9772V36.288C43.9772 34.432 43.4012 32.864 42.2492 31.584C41.1612 30.304 39.5932 29.312 37.5452 28.608C35.5612 27.904 33.2252 27.552 30.5372 27.552C27.6572 27.552 25.1932 27.84 23.1452 28.416C21.0972 28.928 19.5292 29.728 18.4412 30.816C17.3532 31.84 16.8092 33.12 16.8092 34.656C16.8092 36.256 17.3852 37.6 18.5372 38.688C19.6892 39.776 21.2252 40.704 23.1452 41.472C25.1292 42.24 27.3372 42.944 29.7692 43.584C32.2652 44.224 34.7932 44.928 37.3532 45.696C39.9772 46.4 42.5052 47.232 44.9372 48.192C47.4332 49.152 49.6412 50.368 51.5612 51.84C53.5452 53.248 55.1132 55.008 56.2652 57.12C57.4172 59.232 57.9932 61.76 57.9932 64.704C57.9932 69.632 56.7772 73.6 54.3452 76.608C51.9772 79.616 48.6812 81.792 44.4572 83.136C40.2972 84.48 35.5292 85.152 30.1532 85.152Z" fill="white"/>
<path d="M68.5525 84V14.592H80.2645V39.264H80.9365C82.0245 37.92 83.3045 36.736 84.7765 35.712C86.2485 34.688 87.9125 33.888 89.7685 33.312C91.6885 32.672 93.8005 32.352 96.1045 32.352C99.3045 32.352 102.12 32.928 104.552 34.08C107.048 35.232 109 37.088 110.409 39.648C111.816 42.208 112.52 45.632 112.52 49.92V84H100.712V52.032C100.712 50.24 100.488 48.768 100.04 47.616C99.6565 46.4 99.0485 45.44 98.2165 44.736C97.4485 43.968 96.4885 43.424 95.3365 43.104C94.1845 42.784 92.9045 42.624 91.4965 42.624C89.3845 42.624 87.4645 43.136 85.7365 44.16C84.0725 45.184 82.7285 46.592 81.7045 48.384C80.7445 50.176 80.2645 52.256 80.2645 54.624V84H68.5525Z" fill="white"/>
<path d="M147.079 85.152C141.575 85.152 136.967 84.224 133.255 82.368C129.543 80.448 126.759 77.536 124.903 73.632C123.047 69.728 122.119 64.768 122.119 58.752C122.119 52.672 123.047 47.712 124.903 43.872C126.759 39.968 129.543 37.088 133.255 35.232C136.967 33.312 141.575 32.352 147.079 32.352C152.647 32.352 157.255 33.312 160.903 35.232C164.615 37.088 167.399 39.968 169.255 43.872C171.111 47.712 172.039 52.672 172.039 58.752C172.039 64.768 171.111 69.728 169.255 73.632C167.399 77.536 164.615 80.448 160.903 82.368C157.255 84.224 152.647 85.152 147.079 85.152ZM147.079 75.552C150.151 75.552 152.615 74.976 154.471 73.824C156.391 72.608 157.767 70.816 158.599 68.448C159.495 66.016 159.943 63.008 159.943 59.424V58.08C159.943 54.496 159.495 51.52 158.599 49.152C157.767 46.72 156.391 44.928 154.471 43.776C152.615 42.56 150.151 41.952 147.079 41.952C144.007 41.952 141.511 42.56 139.591 43.776C137.735 44.928 136.359 46.72 135.463 49.152C134.631 51.52 134.215 54.496 134.215 58.08V59.424C134.215 63.008 134.631 66.016 135.463 68.448C136.359 70.816 137.735 72.608 139.591 73.824C141.511 74.976 144.007 75.552 147.079 75.552Z" fill="white"/>
<path d="M191.11 84L176.038 33.504H188.134L195.142 60.96C195.526 62.368 195.846 63.776 196.102 65.184C196.358 66.528 196.582 67.68 196.774 68.64C196.966 69.6 197.094 70.176 197.158 70.368H197.734C197.99 69.216 198.246 67.968 198.502 66.624C198.758 65.28 198.982 64.064 199.174 62.976C199.43 61.824 199.59 61.056 199.654 60.672L206.182 33.504H218.758L225.574 60.768C225.83 61.664 226.054 62.72 226.246 63.936C226.502 65.088 226.758 66.24 227.014 67.392C227.27 68.544 227.462 69.536 227.59 70.368H228.166C228.294 69.6 228.454 68.672 228.646 67.584C228.902 66.496 229.158 65.376 229.414 64.224C229.67 63.072 229.894 62.016 230.086 61.056L236.998 33.504H248.23L233.254 84H220.87L215.11 59.904C214.854 58.688 214.534 57.312 214.15 55.776C213.83 54.24 213.51 52.704 213.19 51.168C212.934 49.632 212.71 48.32 212.518 47.232H211.942C211.942 47.68 211.846 48.48 211.654 49.632C211.462 50.784 211.174 52.224 210.79 53.952C210.47 55.68 210.022 57.664 209.446 59.904L203.494 84H191.11Z" fill="white"/>
<path d="M21.9865 188V132.896H0.962494V122.144H55.5865V132.896H34.4665V188H21.9865Z" fill="white"/>
<path d="M64.24 129.728V118.592H75.952V129.728H64.24ZM64.24 188V137.504H75.952V188H64.24Z" fill="white"/>
<path d="M109.451 189.152C104.203 189.152 99.8195 188.224 96.2995 186.368C92.8435 184.448 90.2515 181.536 88.5235 177.632C86.7955 173.728 85.9315 168.768 85.9315 162.752C85.9315 156.672 86.7955 151.712 88.5235 147.872C90.3155 143.968 92.9395 141.088 96.3955 139.232C99.9155 137.312 104.267 136.352 109.451 136.352C112.843 136.352 115.851 136.768 118.475 137.6C121.099 138.432 123.339 139.712 125.195 141.44C127.115 143.104 128.556 145.184 129.516 147.68C130.476 150.176 130.955 153.088 130.955 156.416H119.051C119.051 154.048 118.699 152.096 117.995 150.56C117.291 149.024 116.203 147.872 114.731 147.104C113.323 146.272 111.499 145.856 109.259 145.856C106.635 145.856 104.491 146.464 102.827 147.68C101.163 148.896 99.9155 150.72 99.0835 153.152C98.3155 155.52 97.9315 158.528 97.9315 162.176V163.424C97.9315 167.008 98.3155 170.016 99.0835 172.448C99.9155 174.88 101.195 176.704 102.923 177.92C104.651 179.072 106.923 179.648 109.739 179.648C111.915 179.648 113.707 179.264 115.115 178.496C116.587 177.664 117.707 176.448 118.475 174.848C119.243 173.248 119.627 171.328 119.627 169.088H130.955C130.955 172.224 130.476 175.04 129.516 177.536C128.556 180.032 127.147 182.144 125.291 183.872C123.435 185.6 121.163 186.912 118.475 187.808C115.851 188.704 112.843 189.152 109.451 189.152Z" fill="white"/>
<path d="M140.927 188V118.592H152.639V159.008L170.783 137.504H184.512L167.615 157.088L185.471 188H172.031L160.128 165.632L152.639 172.832V188H140.927Z" fill="white"/>
<path d="M211.373 189.152C205.997 189.152 201.518 188.224 197.934 186.368C194.35 184.448 191.661 181.536 189.869 177.632C188.077 173.728 187.181 168.768 187.181 162.752C187.181 156.672 188.077 151.712 189.869 147.872C191.661 143.968 194.35 141.088 197.934 139.232C201.518 137.312 205.997 136.352 211.373 136.352C216.237 136.352 220.301 137.28 223.565 139.136C226.893 140.928 229.389 143.712 231.053 147.488C232.717 151.264 233.549 156.16 233.549 162.176V165.632H199.181C199.309 168.768 199.789 171.424 200.621 173.6C201.453 175.712 202.734 177.312 204.462 178.4C206.254 179.424 208.589 179.936 211.469 179.936C212.941 179.936 214.317 179.744 215.597 179.36C216.877 178.976 217.997 178.4 218.957 177.632C219.917 176.8 220.653 175.776 221.165 174.56C221.741 173.344 222.029 171.936 222.029 170.336H233.549C233.549 173.536 232.973 176.32 231.821 178.688C230.733 181.056 229.165 183.008 227.117 184.544C225.133 186.08 222.797 187.232 220.109 188C217.421 188.768 214.509 189.152 211.373 189.152ZM199.373 157.376H221.357C221.357 155.264 221.101 153.472 220.589 152C220.141 150.528 219.47 149.312 218.574 148.352C217.742 147.392 216.717 146.72 215.501 146.336C214.285 145.888 212.909 145.664 211.373 145.664C208.877 145.664 206.765 146.08 205.037 146.912C203.373 147.744 202.093 149.024 201.197 150.752C200.301 152.48 199.693 154.688 199.373 157.376Z" fill="white"/>
<path d="M256.834 189.152C253.698 189.152 251.234 188.544 249.442 187.328C247.65 186.048 246.37 184.448 245.602 182.528C244.898 180.544 244.546 178.528 244.546 176.48V147.104H238.498V137.504H244.834L246.946 123.392H256.258V137.504H264.994V147.104H256.258V175.328C256.258 176.672 256.61 177.728 257.314 178.496C258.018 179.2 259.074 179.552 260.482 179.552H264.994V187.616C264.354 187.872 263.554 188.096 262.594 188.288C261.698 188.544 260.738 188.736 259.714 188.864C258.69 189.056 257.73 189.152 256.834 189.152Z" fill="white"/>
</svg>
