<svg width="331" height="196" viewBox="0 0 331 196" fill="none" xmlns="http://www.w3.org/2000/svg">
<path d="M56 10C56 4.47715 60.4772 0 66 0H166C171.523 0 176 4.47715 176 10V65C176 70.5228 171.523 75 166 75H66C60.4771 75 56 70.5228 56 65V10Z" fill="#FDB818"/>
<path d="M60.1532 76.152C56.5052 76.152 53.0172 75.768 49.6892 75C46.3612 74.168 43.4172 72.92 40.8572 71.256C38.2972 69.528 36.2812 67.416 34.8092 64.92C33.3372 62.36 32.6012 59.352 32.6012 55.896C32.6012 55.512 32.6012 55.128 32.6012 54.744C32.6652 54.36 32.6972 54.072 32.6972 53.88H45.2732C45.2732 54.008 45.2412 54.264 45.1772 54.648C45.1772 54.968 45.1772 55.256 45.1772 55.512C45.1772 57.624 45.7852 59.448 47.0012 60.984C48.2172 62.456 49.9772 63.608 52.2812 64.44C54.5852 65.208 57.3052 65.592 60.4412 65.592C62.5532 65.592 64.4092 65.464 66.0092 65.208C67.6732 64.952 69.0812 64.6 70.2332 64.152C71.4492 63.64 72.4413 63.064 73.2093 62.424C73.9773 61.72 74.5212 60.952 74.8412 60.12C75.2252 59.288 75.4173 58.392 75.4173 57.432C75.4173 55.576 74.8412 54.04 73.6892 52.824C72.5372 51.608 70.9693 50.584 68.9853 49.752C67.0653 48.92 64.8572 48.184 62.3612 47.544C59.9292 46.84 57.4012 46.136 54.7772 45.432C52.2172 44.728 49.6892 43.896 47.1932 42.936C44.7612 41.912 42.5532 40.696 40.5692 39.288C38.6492 37.88 37.1132 36.12 35.9612 34.008C34.8092 31.832 34.2332 29.24 34.2332 26.232C34.2332 23.16 34.8732 20.472 36.1532 18.168C37.4972 15.864 39.3532 13.976 41.7212 12.504C44.1532 10.968 46.9692 9.848 50.1693 9.144C53.3693 8.376 56.8572 7.992 60.6332 7.992C64.1532 7.992 67.4492 8.376 70.5212 9.144C73.6572 9.848 76.4093 11 78.7773 12.6C81.1453 14.136 83.0013 16.12 84.3453 18.552C85.6893 20.92 86.3613 23.768 86.3613 27.096V28.248H73.9772V27.288C73.9772 25.432 73.4013 23.864 72.2493 22.584C71.1613 21.304 69.5933 20.312 67.5452 19.608C65.5613 18.904 63.2253 18.552 60.5373 18.552C57.6572 18.552 55.1932 18.84 53.1452 19.416C51.0972 19.928 49.5292 20.728 48.4412 21.816C47.3532 22.84 46.8092 24.12 46.8092 25.656C46.8092 27.256 47.3852 28.6 48.5372 29.688C49.6892 30.776 51.2252 31.704 53.1452 32.472C55.1292 33.24 57.3372 33.944 59.7692 34.584C62.2652 35.224 64.7932 35.928 67.3532 36.696C69.9772 37.4 72.5052 38.232 74.9372 39.192C77.4332 40.152 79.6413 41.368 81.5612 42.84C83.5452 44.248 85.1133 46.008 86.2653 48.12C87.4173 50.232 87.9932 52.76 87.9932 55.704C87.9932 60.632 86.7773 64.6 84.3453 67.608C81.9773 70.616 78.6813 72.792 74.4573 74.136C70.2973 75.48 65.5292 76.152 60.1532 76.152Z" fill="white"/>
<path d="M98.5525 75V5.592H110.264V30.264H110.937C112.025 28.92 113.304 27.736 114.776 26.712C116.248 25.688 117.913 24.888 119.769 24.312C121.689 23.672 123.8 23.352 126.104 23.352C129.304 23.352 132.12 23.928 134.552 25.08C137.048 26.232 139 28.088 140.409 30.648C141.816 33.208 142.521 36.632 142.521 40.92V75H130.713V43.032C130.713 41.24 130.489 39.768 130.041 38.616C129.657 37.4 129.049 36.44 128.216 35.736C127.448 34.968 126.488 34.424 125.336 34.104C124.184 33.784 122.904 33.624 121.496 33.624C119.384 33.624 117.464 34.136 115.736 35.16C114.072 36.184 112.728 37.592 111.704 39.384C110.744 41.176 110.264 43.256 110.264 45.624V75H98.5525Z" fill="white"/>
<path d="M177.079 76.152C171.575 76.152 166.967 75.224 163.255 73.368C159.543 71.448 156.759 68.536 154.903 64.632C153.047 60.728 152.119 55.768 152.119 49.752C152.119 43.672 153.047 38.712 154.903 34.872C156.759 30.968 159.543 28.088 163.255 26.232C166.967 24.312 171.575 23.352 177.079 23.352C182.647 23.352 187.255 24.312 190.903 26.232C194.615 28.088 197.399 30.968 199.255 34.872C201.111 38.712 202.039 43.672 202.039 49.752C202.039 55.768 201.111 60.728 199.255 64.632C197.399 68.536 194.615 71.448 190.903 73.368C187.255 75.224 182.647 76.152 177.079 76.152ZM177.079 66.552C180.151 66.552 182.615 65.976 184.471 64.824C186.391 63.608 187.767 61.816 188.599 59.448C189.495 57.016 189.943 54.008 189.943 50.424V49.08C189.943 45.496 189.495 42.52 188.599 40.152C187.767 37.72 186.391 35.928 184.471 34.776C182.615 33.56 180.151 32.952 177.079 32.952C174.007 32.952 171.511 33.56 169.591 34.776C167.735 35.928 166.359 37.72 165.463 40.152C164.631 42.52 164.215 45.496 164.215 49.08V50.424C164.215 54.008 164.631 57.016 165.463 59.448C166.359 61.816 167.735 63.608 169.591 64.824C171.511 65.976 174.007 66.552 177.079 66.552Z" fill="white"/>
<path d="M221.11 75L206.038 24.504H218.134L225.142 51.96C225.526 53.368 225.846 54.776 226.102 56.184C226.358 57.528 226.582 58.68 226.774 59.64C226.966 60.6 227.094 61.176 227.158 61.368H227.734C227.99 60.216 228.246 58.968 228.502 57.624C228.758 56.28 228.982 55.064 229.174 53.976C229.43 52.824 229.59 52.056 229.654 51.672L236.182 24.504H248.758L255.574 51.768C255.83 52.664 256.054 53.72 256.246 54.936C256.502 56.088 256.758 57.24 257.014 58.392C257.27 59.544 257.462 60.536 257.59 61.368H258.166C258.294 60.6 258.454 59.672 258.646 58.584C258.902 57.496 259.158 56.376 259.414 55.224C259.67 54.072 259.894 53.016 260.086 52.056L266.998 24.504H278.23L263.254 75H250.87L245.11 50.904C244.854 49.688 244.534 48.312 244.15 46.776C243.83 45.24 243.51 43.704 243.19 42.168C242.934 40.632 242.71 39.32 242.518 38.232H241.942C241.942 38.68 241.846 39.48 241.654 40.632C241.462 41.784 241.174 43.224 240.79 44.952C240.47 46.68 240.022 48.664 239.446 50.904L233.494 75H221.11Z" fill="white"/>
<path d="M0.702248 179V113.144H35.3582C40.2222 113.144 44.2542 113.976 47.4543 115.64C50.6543 117.304 53.0542 119.672 54.6542 122.744C56.2542 125.816 57.0543 129.432 57.0543 133.592C57.0543 137.88 56.0942 141.688 54.1742 145.016C52.2542 148.28 49.4383 150.744 45.7262 152.408L59.3582 179H45.7262L33.6302 154.52H13.1822V179H0.702248ZM13.1822 144.056H34.3982C37.5982 144.056 40.0623 143.128 41.7902 141.272C43.5182 139.416 44.3822 136.856 44.3822 133.592C44.3822 131.48 43.9982 129.72 43.2303 128.312C42.4622 126.84 41.3423 125.72 39.8703 124.952C38.3983 124.184 36.5742 123.8 34.3982 123.8H13.1822V144.056Z" fill="white"/>
<path d="M89.2172 180.152C83.8412 180.152 79.3612 179.224 75.7772 177.368C72.1932 175.448 69.5052 172.536 67.7132 168.632C65.9212 164.728 65.0252 159.768 65.0252 153.752C65.0252 147.672 65.9212 142.712 67.7132 138.872C69.5052 134.968 72.1932 132.088 75.7772 130.232C79.3612 128.312 83.8412 127.352 89.2172 127.352C94.0812 127.352 98.1452 128.28 101.409 130.136C104.737 131.928 107.233 134.712 108.897 138.488C110.561 142.264 111.393 147.16 111.393 153.176V156.632H77.0252C77.1532 159.768 77.6332 162.424 78.4652 164.6C79.2972 166.712 80.5772 168.312 82.3052 169.4C84.0972 170.424 86.4332 170.936 89.3132 170.936C90.7852 170.936 92.1612 170.744 93.4412 170.36C94.7212 169.976 95.8412 169.4 96.8012 168.632C97.7612 167.8 98.4972 166.776 99.0092 165.56C99.5852 164.344 99.8732 162.936 99.8732 161.336H111.393C111.393 164.536 110.817 167.32 109.665 169.688C108.577 172.056 107.009 174.008 104.961 175.544C102.977 177.08 100.641 178.232 97.9532 179C95.2652 179.768 92.3532 180.152 89.2172 180.152ZM77.2172 148.376H99.2012C99.2012 146.264 98.9452 144.472 98.4333 143C97.9853 141.528 97.3133 140.312 96.4173 139.352C95.5853 138.392 94.5613 137.72 93.3453 137.336C92.1293 136.888 90.7532 136.664 89.2172 136.664C86.7212 136.664 84.6092 137.08 82.8812 137.912C81.2172 138.744 79.9372 140.024 79.0412 141.752C78.1452 143.48 77.5372 145.688 77.2172 148.376Z" fill="white"/>
<path d="M142.358 180.152C137.11 180.152 132.726 179.224 129.206 177.368C125.75 175.448 123.158 172.536 121.43 168.632C119.702 164.728 118.838 159.768 118.838 153.752C118.838 147.672 119.702 142.712 121.43 138.872C123.222 134.968 125.846 132.088 129.302 130.232C132.822 128.312 137.174 127.352 142.358 127.352C145.75 127.352 148.758 127.768 151.382 128.6C154.006 129.432 156.246 130.712 158.102 132.44C160.022 134.104 161.462 136.184 162.422 138.68C163.382 141.176 163.862 144.088 163.862 147.416H151.958C151.958 145.048 151.606 143.096 150.902 141.56C150.198 140.024 149.11 138.872 147.638 138.104C146.23 137.272 144.406 136.856 142.166 136.856C139.542 136.856 137.398 137.464 135.734 138.68C134.07 139.896 132.822 141.72 131.99 144.152C131.222 146.52 130.838 149.528 130.838 153.176V154.424C130.838 158.008 131.222 161.016 131.99 163.448C132.822 165.88 134.102 167.704 135.83 168.92C137.558 170.072 139.83 170.648 142.646 170.648C144.822 170.648 146.614 170.264 148.022 169.496C149.494 168.664 150.614 167.448 151.382 165.848C152.15 164.248 152.534 162.328 152.534 160.088H163.862C163.862 163.224 163.382 166.04 162.422 168.536C161.462 171.032 160.054 173.144 158.198 174.872C156.342 176.6 154.07 177.912 151.382 178.808C148.758 179.704 145.75 180.152 142.358 180.152Z" fill="white"/>
<path d="M195.53 180.152C190.154 180.152 185.674 179.224 182.09 177.368C178.506 175.448 175.818 172.536 174.026 168.632C172.234 164.728 171.338 159.768 171.338 153.752C171.338 147.672 172.234 142.712 174.026 138.872C175.818 134.968 178.506 132.088 182.09 130.232C185.674 128.312 190.154 127.352 195.53 127.352C200.394 127.352 204.458 128.28 207.722 130.136C211.05 131.928 213.546 134.712 215.21 138.488C216.874 142.264 217.706 147.16 217.706 153.176V156.632H183.338C183.466 159.768 183.946 162.424 184.778 164.6C185.61 166.712 186.89 168.312 188.618 169.4C190.41 170.424 192.746 170.936 195.626 170.936C197.098 170.936 198.474 170.744 199.754 170.36C201.034 169.976 202.154 169.4 203.114 168.632C204.074 167.8 204.81 166.776 205.322 165.56C205.898 164.344 206.186 162.936 206.186 161.336H217.706C217.706 164.536 217.13 167.32 215.978 169.688C214.89 172.056 213.322 174.008 211.274 175.544C209.29 177.08 206.954 178.232 204.266 179C201.578 179.768 198.666 180.152 195.53 180.152ZM183.53 148.376H205.514C205.514 146.264 205.258 144.472 204.746 143C204.298 141.528 203.626 140.312 202.73 139.352C201.898 138.392 200.874 137.72 199.658 137.336C198.442 136.888 197.066 136.664 195.53 136.664C193.034 136.664 190.922 137.08 189.194 137.912C187.53 138.744 186.25 140.024 185.354 141.752C184.458 143.48 183.85 145.688 183.53 148.376Z" fill="white"/>
<path d="M227.646 120.728V109.592H239.358V120.728H227.646ZM227.646 179V128.504H239.358V179H227.646Z" fill="white"/>
<path d="M251.834 195.608V128.504H261.53L262.49 135.224H263.162C264.826 132.6 267.002 130.648 269.69 129.368C272.378 128.024 275.354 127.352 278.618 127.352C282.778 127.352 286.33 128.28 289.274 130.136C292.282 131.992 294.586 134.872 296.186 138.776C297.85 142.68 298.682 147.704 298.682 153.848C298.682 159.864 297.85 164.824 296.186 168.728C294.522 172.632 292.218 175.512 289.274 177.368C286.394 179.224 283.066 180.152 279.29 180.152C276.986 180.152 274.874 179.896 272.954 179.384C271.034 178.872 269.338 178.104 267.866 177.08C266.394 175.992 265.146 174.68 264.122 173.144H263.546V195.608H251.834ZM274.97 170.072C277.85 170.072 280.122 169.528 281.786 168.44C283.514 167.288 284.73 165.56 285.434 163.256C286.202 160.952 286.586 158.04 286.586 154.52V153.176C286.586 149.592 286.202 146.648 285.434 144.344C284.73 141.976 283.514 140.248 281.786 139.16C280.122 138.008 277.85 137.432 274.97 137.432C272.346 137.432 270.17 138.04 268.442 139.256C266.778 140.472 265.53 142.264 264.698 144.632C263.93 146.936 263.546 149.784 263.546 153.176V154.328C263.546 156.824 263.77 159.064 264.218 161.048C264.666 162.968 265.338 164.6 266.234 165.944C267.194 167.288 268.378 168.312 269.786 169.016C271.258 169.72 272.986 170.072 274.97 170.072Z" fill="white"/>
<path d="M321.99 180.152C318.854 180.152 316.39 179.544 314.598 178.328C312.806 177.048 311.526 175.448 310.758 173.528C310.054 171.544 309.702 169.528 309.702 167.48V138.104H303.654V128.504H309.99L312.102 114.392H321.414V128.504H330.15V138.104H321.414V166.328C321.414 167.672 321.766 168.728 322.47 169.496C323.174 170.2 324.23 170.552 325.638 170.552H330.15V178.616C329.51 178.872 328.71 179.096 327.75 179.288C326.854 179.544 325.894 179.736 324.87 179.864C323.846 180.056 322.886 180.152 321.99 180.152Z" fill="white"/>
</svg>
